<?xml version="1.0" standalone="no"?><!DOCTYPE svg PUBLIC "-//W3C//DTD SVG 1.1//EN" "http://www.w3.org/Graphics/SVG/1.1/DTD/svg11.dtd"><svg t="1628410769621" class="icon" viewBox="0 0 1024 1024" version="1.1" xmlns="http://www.w3.org/2000/svg" p-id="3273" xmlns:xlink="http://www.w3.org/1999/xlink" width="200" height="200"><defs><style type="text/css"></style></defs><path d="M1014.62198 951.830854c-6.415035-7.216915-17.641347-17.641347-32.877055-27.2639-37.688332-23.254503-80.98982-32.877056-129.102585-22.452624l121.88567-320.751761c14.433829-38.490211-1.603759-84.197338-36.886453-104.244323l-60.942834-34.480815V228.53563c0-42.499608-34.480814-76.980423-76.980423-76.980422-7.216915 0-13.63195-2.405638-18.443227-7.216915-4.811276-4.811276-7.216915-11.226312-7.216914-18.443226V76.980423C774.058159 34.480814 739.577344 0 697.077736 0H337.835763C295.336154 0 260.85534 34.480814 260.85534 76.980423v48.914644c0 14.433829-11.226312 25.660141-25.660141 25.660141-42.499608 0-76.980423 34.480814-76.980423 76.980422v214.101801l-60.942835 34.480815C61.989247 497.165231 45.951659 542.872357 60.385488 581.362569l148.34769 389.71339c-41.697729 4.811276-81.791699-6.415035-121.08379-29.669538-11.226312-6.415035-21.650744-14.433829-30.471417-21.650744-4.811276-4.009397-8.820673-7.216915-9.622553-8.820673-9.622553-10.424432-26.46202-10.424432-36.084573 0-10.424432 9.622553-10.424432 26.46202 0 36.084573 9.622553 9.622553 27.2639 24.056382 50.518402 38.490212 75.376664 44.905247 159.574002 54.5278 243.771339 4.811276 71.367267-41.697729 135.517619-41.697729 190.045419-17.641347 13.63195 6.415035 22.452623 12.028191 26.462021 15.235709l2.405638 1.603759c7.216915 4.811276 20.046985 10.424432 36.886453 16.839467 72.971026 26.46202 154.762725 24.056382 237.356303-27.2639 63.348473-39.292091 114.668755-37.688332 155.564605-12.028191 10.424432 6.415035 17.641347 13.63195 20.848864 16.839468 8.820673 10.424432 24.858262 12.028191 36.084574 2.405638 10.424432-7.216915 12.028191-23.254503 3.207517-34.480814zM543.11689 692.823806h-51.320282V311.931088h51.320282v380.892718z m282.261551-279.054033L573.588308 270.233359c-31.273297-17.641347-80.18794-17.641347-111.461238 0L209.535058 413.769773v-184.432263c0-14.433829 11.226312-25.660141 25.660141-25.660141 42.499608 0 76.980423-34.480814 76.980423-76.980423V76.980423c0-6.415035 2.405638-13.63195 7.216914-18.443226 4.811276-4.811276 11.226312-7.216915 18.443227-7.216915h359.241973c14.433829 0 25.660141 11.226312 25.660141 25.660141v48.914644c0 42.499608 34.480814 76.980423 76.980423 76.980422 14.433829 0 25.660141 11.226312 25.660141 25.660141v185.234143z" fill="#ffffff" p-id="3274"></path></svg>