<?xml version="1.0" standalone="no"?><!DOCTYPE svg PUBLIC "-//W3C//DTD SVG 1.1//EN" "http://www.w3.org/Graphics/SVG/1.1/DTD/svg11.dtd"><svg t="1628410817361" class="icon" viewBox="0 0 1024 1024" version="1.1" xmlns="http://www.w3.org/2000/svg" p-id="4132" xmlns:xlink="http://www.w3.org/1999/xlink" width="200" height="200"><defs><style type="text/css"></style></defs><path d="M512 128a384 384 0 1 0 0 768 384 384 0 1 0 0-768zM353.28 249.429333a4.394667 4.394667 0 0 1 5.418667 0.682667l79.146666 79.146667c2.133333 2.133333 1.365333 5.546667-1.365333 6.698666a192.256 192.256 0 0 0-100.522667 100.522667 4.096 4.096 0 0 1-6.698666 1.365333L250.112 358.698667a4.437333 4.437333 0 0 1-0.682667-5.418667 309.76 309.76 0 0 1 103.893334-103.850667z m84.48 445.312l-79.146667 79.146667a4.522667 4.522667 0 0 1-5.418666 0.682667 309.546667 309.546667 0 0 1-103.850667-103.850667 4.437333 4.437333 0 0 1 0.682667-5.418667l79.146666-79.146666c2.133333-2.133333 5.546667-1.365333 6.698667 1.365333a192.426667 192.426667 0 0 0 100.565333 100.565333c2.688 1.152 3.413333 4.565333 1.28 6.656zM384 512a128 128 0 1 1 256 0 128 128 0 1 1-256 0z m286.72 262.570667a4.437333 4.437333 0 0 1-5.418667-0.682667l-79.146666-79.146667a4.053333 4.053333 0 0 1 1.365333-6.698666 192.426667 192.426667 0 0 0 100.565333-100.565334 4.096 4.096 0 0 1 6.698667-1.365333l79.146667 79.146667c1.408 1.408 1.706667 3.712 0.682666 5.418666a309.333333 309.333333 0 0 1-103.893333 103.893334z m103.253333-415.872l-79.146666 79.146666a4.053333 4.053333 0 0 1-6.698667-1.365333 192.256 192.256 0 0 0-100.522667-100.522667 4.096 4.096 0 0 1-1.365333-6.698666l79.146667-79.146667a4.522667 4.522667 0 0 1 5.418666-0.682667 309.546667 309.546667 0 0 1 103.850667 103.850667 4.437333 4.437333 0 0 1-0.682667 5.418667z" p-id="4133" fill="#ffffff"></path></svg>